<svg width="20" height="25" viewBox="0 0 20 25" fill="none" xmlns="http://www.w3.org/2000/svg">
<path d="M10.8748 22.8311L0 12.1874V14.3618C0 14.938 0.233268 15.4925 0.655373 15.8948L9.30853 24.364C10.175 25.212 11.5857 25.212 12.4521 24.364L19.3502 17.6125C20.2166 16.7645 20.2166 15.3838 19.3502 14.5358L10.8748 22.8311Z" fill="#E62428"/>
<path d="M9.30853 18.928C9.74174 19.352 10.3082 19.5695 10.8748 19.5695C11.4413 19.5695 12.0078 19.352 12.441 18.928L19.3391 12.1766C20.2055 11.3285 20.2055 9.94781 19.3391 9.0998L10.6859 0.630571C10.2749 0.22831 9.70841 0 9.11969 0H2.22161C0.999722 0 0 0.978473 0 2.17438V8.92585C0 9.50206 0.233268 10.0565 0.655373 10.4588L9.30853 18.928ZM2.22161 2.17438H9.11969L17.7728 10.6436L10.8748 17.3951L2.22161 8.92585V2.17438Z" fill="#E62428"/>
<path d="M4.72091 5.97956C5.48776 5.97956 6.10941 5.37112 6.10941 4.62057C6.10941 3.87002 5.48776 3.26158 4.72091 3.26158C3.95406 3.26158 3.33241 3.87002 3.33241 4.62057C3.33241 5.37112 3.95406 5.97956 4.72091 5.97956Z" fill="#E62428"/>
</svg>
