<svg width="22" height="22" viewBox="0 0 22 22" fill="none" xmlns="http://www.w3.org/2000/svg">
<path d="M9.88889 1.00002H2.66667C2.22464 1.00002 1.80072 1.17562 1.48816 1.48818C1.17559 1.80074 1 2.22466 1 2.66669V14.8889C1 15.3309 1.17559 15.7549 1.48816 16.0674C1.80072 16.38 2.22464 16.5556 2.66667 16.5556H19.3333C19.7754 16.5556 20.1993 16.38 20.5118 16.0674C20.8244 15.7549 21 15.3309 21 14.8889V9.88891M11 16.5556V21M5.44444 21H16.5556M16.1667 1.00002C15.1544 1.00002 14.3333 1.79724 14.3333 2.78058C14.3333 4.56058 16.5 6.17891 17.6667 6.55558C18.8333 6.17891 21 4.56113 21 2.78058C21 1.79724 20.1794 1.00002 19.1667 1.00002C18.8746 0.998637 18.5864 1.06649 18.3257 1.19802C18.065 1.32955 17.8391 1.521 17.6667 1.75669C17.4942 1.521 17.2684 1.32955 17.0076 1.19802C16.7469 1.06649 16.4587 0.998637 16.1667 1.00002V1.00002Z" stroke="#E62428" stroke-width="2" stroke-linecap="round" stroke-linejoin="round"/>
</svg>
