<svg width="22" height="17" viewBox="0 0 22 17" fill="none" xmlns="http://www.w3.org/2000/svg">
<path d="M1 5.28571C2.06087 5.28571 3.07828 4.83419 3.82843 4.03046C4.57857 3.22673 5 2.13664 5 1M17 16C17 14.8634 17.4214 13.7733 18.1716 12.9695C18.9217 12.1658 19.9391 11.7143 21 11.7143M1 3.14286C1 2.57454 1.21071 2.02949 1.58579 1.62763C1.96086 1.22576 2.46957 1 3 1H19C19.5304 1 20.0391 1.22576 20.4142 1.62763C20.7893 2.02949 21 2.57454 21 3.14286V13.8571C21 14.4255 20.7893 14.9705 20.4142 15.3724C20.0391 15.7742 19.5304 16 19 16H3C2.46957 16 1.96086 15.7742 1.58579 15.3724C1.21071 14.9705 1 14.4255 1 13.8571V3.14286ZM14 8.5C14 10.2752 12.6569 11.7143 11 11.7143C9.34315 11.7143 8 10.2752 8 8.5C8 6.7248 9.34315 5.28571 11 5.28571C12.6569 5.28571 14 6.7248 14 8.5Z" stroke="#E62428" stroke-width="2" stroke-linecap="round" stroke-linejoin="round"/>
</svg>
